<?xml version="1.0" encoding="utf-8"?>
<!-- Generator: Adobe Illustrator 23.1.1, SVG Export Plug-In . SVG Version: 6.00 Build 0)  -->
<svg version="1.1" id="Layer_1" xmlns="http://www.w3.org/2000/svg" xmlns:xlink="http://www.w3.org/1999/xlink" x="0px" y="0px"
	 viewBox="0 0 439 455" style="enable-background:new 0 0 439 455;" xml:space="preserve">
<style type="text/css">
	.st0{fill:#F05A28;}
	.st1{fill:#FFFFFF;}
</style>
<g>
	<path class="st0" d="M225.44,325.77V308.7H122.99V120.87h153.68v51.23H174.21v85.38h51.23V240.4h-34.15v-51.23h85.38V377
		L225.44,325.77z"/>
</g>
<polygon class="st1" points="288.63,191.51 223.31,117.67 294.85,121.18 "/>
<g>
	<path class="st0" d="M237.13,93.55l2.94-3.22l25.1,8.35l-3.14,3.43c-10.26-3.74-16.89-6.07-19.88-7c0.52,1.36,1.5,3.64,2.94,6.85
		c1.44,3.21,2.74,6.08,3.91,8.6l1.79,3.82l-3.18,3.47L237.13,93.55z"/>
	<path class="st0" d="M331.49,174l-2.94,3.22l-25.14-8.31l3.18-3.47c10.18,3.72,16.82,6.01,19.92,6.87c-0.52-1.3-1.5-3.55-2.94-6.73
		c-1.44-3.18-2.76-6.05-3.96-8.6l-1.79-3.82l3.14-3.43L331.49,174z"/>
</g>
<g>
	<path class="st0" d="M257.37,148.97l35.52-35.52h-22.2v-13.32h39.96v17.76l-17.76,17.76h17.76v13.32H257.37z"/>
</g>
</svg>
